<?xml version="1.0" standalone="no"?>
<!DOCTYPE svg PUBLIC "-//W3C//DTD SVG 20010904//EN"
 "http://www.w3.org/TR/2001/REC-SVG-20010904/DTD/svg10.dtd">
<svg version="1.0" xmlns="http://www.w3.org/2000/svg"
 width="1024.000000pt" height="1024.000000pt" viewBox="0 0 1024.000000 1024.000000"
 preserveAspectRatio="xMidYMid meet">
<metadata>
Created by potrace 1.14, written by Peter Selinger 2001-2017
</metadata>
<g transform="translate(0.000000,1024.000000) scale(0.100000,-0.100000)"
fill="#000000" stroke="none">
<path d="M2105 9044 c-364 -57 -698 -228 -965 -494 -220 -220 -367 -470 -449
-764 -65 -232 -62 -72 -59 -2766 l4 -2445 22 -98 c54 -235 139 -437 260 -618
261 -390 642 -647 1114 -751 l103 -23 2810 0 2810 0 103 23 c472 104 853 361
1114 751 123 184 208 389 260 623 l23 103 0 2485 0 2485 -23 103 c-104 472
-361 853 -751 1114 -181 121 -383 206 -618 260 l-98 23 -2785 1 c-2347 2
-2799 0 -2875 -12z"/>
</g>
</svg>
